#N canvas 916 103 883 916 10;
#X declare -stdpath Fraise;
#X floatatom 22 287 8 0 0 0 - - -;
#X floatatom 79 287 8 0 0 0 - - -;
#X obj 21 38 pied/pied 0 41424;
#X msg 250 268 c 120 c 4 i \$1;
#X obj 253 244 hsl 128 15 -1023 1023 0 0 empty empty empty -2 -8 0
10 -262144 -1 -1 0 1;
#X obj 253 306 hsl 128 15 -1023 1023 0 0 empty empty empty -2 -8 0
10 -262144 -1 -1 0 1;
#X msg 250 330 c 121 c 4 i \$1;
#X msg 222 217 0;
#X obj 20 13 declare -stdpath Fraise;
#X obj 682 44 vsl 15 256 0 255 0 0 empty empty empty 0 -9 0 10 -262144
-1 -1 0 1;
#X msg 413 274 c 122 i \$1;
#X msg 484 273 c 123 i \$1;
#X obj 707 44 vsl 15 256 0 255 0 0 empty empty empty 0 -9 0 10 -262144
-1 -1 0 1;
#X obj 682 334 pack f f;
#X obj 700 310 t b f;
#X msg 682 355 c 124 c \$1 c \$2;
#X msg 413 242 100;
#X msg 484 243 101;
#X msg 562 272 c 255;
#X text 566 253 SAVE;
#X obj 22 231 route M;
#X obj 22 262 unpack f f;
#X obj 300 643 fruit/send2 fruit1;
#X floatatom 300 553 8 0 255 0 - - -;
#X obj 303 523 hsl 128 15 0 255 0 0 empty empty value -2 -8 0 10 -262144
-1 -1 6400 1;
#X floatatom 365 553 8 1 255 1 channel - -;
#X msg 300 613 c 30 i \$2 c \$1;
#X obj 300 582 pack f 1;
#X msg 219 620 c 31 c \$1;
#X obj 219 596 tgl 15 0 empty empty autoON 17 7 0 10 -262144 -1 -1
0 1;
#X obj 56 519 fruit/fruit 1 fruit1 10 dmxMaster-int;
#X obj 19 141 fruit/fruit 1 store1 100 storefw;
#X obj 22 207 fruit/receive store1;
#X obj 227 381 fruit/send2 store1;
#X obj 464 187 + 1;
#X msg 414 122 51;
#X obj 448 158 f;
#X msg 444 121 53;
#X msg 475 119 55;
#X floatatom 530 549 8 0 255 0 - - -;
#X obj 533 519 hsl 128 15 0 255 0 0 empty empty value -2 -8 0 10 -262144
-1 -1 6800 1;
#X floatatom 595 549 8 1 255 1 channel - -;
#X obj 530 578 pack f 1;
#X obj 478 528 + 1;
#X msg 444 465 51;
#X obj 478 501 f;
#X msg 474 464 53;
#X msg 505 462 55;
#X obj 551 201 b;
#X obj 551 222 del 500;
#X msg 315 467 128;
#X connect 3 0 33 0;
#X connect 4 0 3 0;
#X connect 5 0 6 0;
#X connect 6 0 33 0;
#X connect 7 0 4 0;
#X connect 7 0 5 0;
#X connect 9 0 13 0;
#X connect 10 0 33 0;
#X connect 11 0 33 0;
#X connect 12 0 14 0;
#X connect 13 0 15 0;
#X connect 14 0 13 0;
#X connect 14 1 13 1;
#X connect 15 0 33 0;
#X connect 16 0 10 0;
#X connect 17 0 11 0;
#X connect 18 0 33 0;
#X connect 20 0 21 0;
#X connect 21 0 0 0;
#X connect 21 1 1 0;
#X connect 23 0 27 0;
#X connect 24 0 23 0;
#X connect 25 0 27 1;
#X connect 26 0 22 0;
#X connect 27 0 26 0;
#X connect 28 0 22 0;
#X connect 29 0 28 0;
#X connect 32 0 20 0;
#X connect 34 0 11 0;
#X connect 35 0 36 0;
#X connect 36 0 34 0;
#X connect 36 0 10 0;
#X connect 36 0 48 0;
#X connect 37 0 36 0;
#X connect 38 0 36 0;
#X connect 39 0 42 0;
#X connect 40 0 39 0;
#X connect 41 0 42 1;
#X connect 42 0 26 0;
#X connect 43 0 41 0;
#X connect 44 0 45 0;
#X connect 45 0 43 0;
#X connect 45 0 25 0;
#X connect 46 0 45 0;
#X connect 47 0 45 0;
#X connect 48 0 49 0;
#X connect 49 0 18 0;
#X connect 50 0 24 0;
#X connect 50 0 40 0;
